<svg width="240" height="180" viewBox="0 0 240 180" fill="none" xmlns="http://www.w3.org/2000/svg">
  <rect width="240" height="180" fill="#07100B"/>
  <rect x="20" y="20" width="200" height="140" rx="6" fill="#0C1510" stroke="#294136"/>
  <path d="M56 58H124V106H56V58Z" fill="#102018" stroke="#CAF5DE" stroke-width="2.5"/>
  <path d="M90 58V42" stroke="#CAF5DE" stroke-width="2.5" stroke-linecap="round"/>
  <path d="M82 50H98" stroke="#CAF5DE" stroke-width="2.5" stroke-linecap="round"/>
  <path d="M124 74H140" stroke="#CAF5DE" stroke-width="2.5" stroke-linecap="round"/>
  <path d="M124 90H140" stroke="#CAF5DE" stroke-width="2.5" stroke-linecap="round"/>
  <path d="M72 106V122" stroke="#CAF5DE" stroke-width="2.5" stroke-linecap="round"/>
  <path d="M108 106V122" stroke="#CAF5DE" stroke-width="2.5" stroke-linecap="round"/>
  <path d="M71 121H109" stroke="#CAF5DE" stroke-width="2.5" stroke-linecap="round"/>
  <path d="M160 70L176 54" stroke="#DD7A1F" stroke-width="3" stroke-linecap="round"/>
  <path d="M176 54V66" stroke="#DD7A1F" stroke-width="3" stroke-linecap="round"/>
  <path d="M176 54H164" stroke="#DD7A1F" stroke-width="3" stroke-linecap="round"/>
  <path d="M176 110L160 126" stroke="#DD7A1F" stroke-width="3" stroke-linecap="round"/>
  <path d="M160 126V114" stroke="#DD7A1F" stroke-width="3" stroke-linecap="round"/>
  <path d="M160 126H172" stroke="#DD7A1F" stroke-width="3" stroke-linecap="round"/>
  <path d="M151 62C163 64 171 72 174 84" stroke="#CAF5DE" stroke-width="2.5" stroke-linecap="round"/>
  <path d="M185 118C173 116 165 108 162 96" stroke="#CAF5DE" stroke-width="2.5" stroke-linecap="round"/>
  <path d="M34 32H88" stroke="#CAF5DE" stroke-opacity="0.45" stroke-width="2"/>
</svg>
