<svg width="480" height="180" viewBox="0 0 480 180" fill="none" xmlns="http://www.w3.org/2000/svg">
  <rect width="480" height="180" fill="#07100B"/>
  <rect x="10" y="10" width="460" height="160" rx="4" fill="url(#bg)" stroke="#294136"/>
  <path d="M26 36H454" stroke="#D7DDD8" stroke-width="2"/>
  <path d="M38 78H442" stroke="#1B2B23"/>
  <path d="M38 114H442" stroke="#1B2B23"/>
  <rect x="38" y="56" width="404" height="88" rx="6" fill="#0F1914" stroke="#2D4439"/>
  <rect x="50" y="70" width="44" height="44" rx="4" fill="#1B2B23" stroke="#CAF5DE" stroke-opacity="0.65"/>
  <path d="M62 81H82" stroke="#CAF5DE" stroke-width="4" stroke-linecap="round"/>
  <path d="M56 91H88" stroke="#CAF5DE" stroke-width="4" stroke-linecap="round"/>
  <path d="M62 101H82" stroke="#CAF5DE" stroke-width="4" stroke-linecap="round"/>
  <path d="M68 75V119" stroke="#CAF5DE" stroke-width="4" stroke-linecap="round"/>
  <text x="110" y="84" fill="#CAF5DE" font-family="'IBM Plex Mono', monospace" font-size="19" letter-spacing="2.8">EVE</text>
  <text x="110" y="112" fill="#F3F6F4" font-family="'IBM Plex Mono', monospace" font-size="28" letter-spacing="1.8">0.00</text>
  <text x="286" y="110" fill="#F3F6F4" font-family="'IBM Plex Mono', monospace" font-size="22" letter-spacing="1.3">0x2fe...935</text>
  <rect x="410" y="92" width="18" height="18" rx="2" stroke="#CAF5DE" stroke-width="2"/>
  <path d="M418 87H432V101" stroke="#CAF5DE" stroke-width="2"/>
  <path d="M30 24H92" stroke="#DD7A1F" stroke-opacity="0.55" stroke-width="2"/>
  <defs>
    <linearGradient id="bg" x1="240" y1="10" x2="240" y2="170" gradientUnits="userSpaceOnUse">
      <stop stop-color="#0D1712"/>
      <stop offset="1" stop-color="#09110D"/>
    </linearGradient>
  </defs>
</svg>
